<?xml version="1.0" encoding="UTF-8" standalone="no"?>
<!-- Created with Inkscape (http://www.inkscape.org/) -->

<svg
   width="128mm"
   height="128mm"
   viewBox="0 0 128 128"
   version="1.1"
   id="svg5"
   inkscape:version="1.2.2 (b0a8486, 2022-12-01)"
   sodipodi:docname="icon.svg"
   xmlns:inkscape="http://www.inkscape.org/namespaces/inkscape"
   xmlns:sodipodi="http://sodipodi.sourceforge.net/DTD/sodipodi-0.dtd"
   xmlns="http://www.w3.org/2000/svg"
   xmlns:svg="http://www.w3.org/2000/svg">
  <sodipodi:namedview
     id="namedview7"
     pagecolor="#ffffff"
     bordercolor="#666666"
     borderopacity="1.0"
     inkscape:showpageshadow="2"
     inkscape:pageopacity="0.0"
     inkscape:pagecheckerboard="0"
     inkscape:deskcolor="#d1d1d1"
     inkscape:document-units="mm"
     showgrid="false"
     inkscape:zoom="2.3786088"
     inkscape:cx="196.96387"
     inkscape:cy="296.18153"
     inkscape:window-width="3786"
     inkscape:window-height="2107"
     inkscape:window-x="54"
     inkscape:window-y="25"
     inkscape:window-maximized="1"
     inkscape:current-layer="layer1" />
  <defs
     id="defs2">
    <inkscape:path-effect
       effect="fillet_chamfer"
       id="path-effect4784"
       is_visible="true"
       lpeversion="1"
       nodesatellites_param="F,0,0,1,0,4.2333333,0,1 @ F,0,0,1,0,4.2333333,0,1 @ F,0,0,1,0,4.2333333,0,1 @ F,0,0,1,0,4.2333333,0,1 @ F,0,0,1,0,4.2333333,0,1 @ F,0,0,1,0,4.2333333,0,1"
       unit="px"
       method="auto"
       mode="F"
       radius="16"
       chamfer_steps="1"
       flexible="false"
       use_knot_distance="true"
       apply_no_radius="true"
       apply_with_radius="true"
       only_selected="false"
       hide_knots="false" />
    <inkscape:path-effect
       effect="fillet_chamfer"
       id="path-effect4782"
       is_visible="true"
       lpeversion="1"
       nodesatellites_param="F,0,0,1,0,4.2333333,0,1 @ F,0,0,1,0,4.2333333,0,1 @ F,0,0,1,0,4.2333333,0,1 @ F,0,0,1,0,4.2333333,0,1 @ F,0,0,1,0,4.2333333,0,1 @ F,0,0,1,0,4.2333333,0,1"
       unit="px"
       method="auto"
       mode="F"
       radius="16"
       chamfer_steps="1"
       flexible="false"
       use_knot_distance="true"
       apply_no_radius="true"
       apply_with_radius="true"
       only_selected="false"
       hide_knots="false" />
  </defs>
  <g
     inkscape:label="Layer 1"
     inkscape:groupmode="layer"
     id="layer1">
    <path
       id="rect234-8"
       style="fill:#d6ad5c;fill-opacity:1;stroke:none;stroke-width:2.21224;stroke-linecap:round;stroke-linejoin:round;stroke-dasharray:none"
       d="m 10.261172,20.47828 19.156273,0 a 10.838318,10.838318 21.335094 0 1 7.345965,2.869257 l 4.345406,4.005641 a 10.838318,10.838318 21.335094 0 0 7.345965,2.869257 h 29.726951 a 4.2333333,4.2333333 45 0 1 4.233333,4.233333 v 42.168145 a 4.2333333,4.2333333 135 0 1 -4.233333,4.233333 H 10.261172 A 4.2333333,4.2333333 45 0 1 6.0278385,76.623913 v -51.9123 A 4.2333333,4.2333333 135 0 1 10.261172,20.47828 Z"
       sodipodi:nodetypes="ccccccc"
       inkscape:path-effect="#path-effect4784"
       inkscape:original-d="M 6.0278385,20.47828 H 33.650778 l 10.57067,9.744155 H 82.415065 V 80.857246 H 6.0278385 Z" />
    <path
       id="rect234"
       style="fill:#e0c184;fill-opacity:1;stroke:none;stroke-width:2.21224;stroke-linecap:round;stroke-linejoin:round;stroke-dasharray:none;stroke-opacity:1"
       d="m 48.712161,46.03664 h 19.156265 a 10.838324,10.838324 21.335083 0 1 7.345966,2.869256 l 4.345412,4.005643 a 10.838324,10.838324 21.335083 0 0 7.345966,2.869256 h 29.72694 a 4.2333333,4.2333333 45 0 1 4.23333,4.233333 v 42.168142 a 4.2333333,4.2333333 135 0 1 -4.23333,4.23333 H 48.712161 a 4.2333333,4.2333333 45 0 1 -4.233333,-4.23333 V 50.269973 a 4.2333333,4.2333333 135 0 1 4.233333,-4.233333 z"
       sodipodi:nodetypes="ccccccc"
       inkscape:path-effect="#path-effect4782"
       inkscape:original-d="m 44.478828,46.03664 h 27.622931 l 10.570678,9.744155 H 120.86604 V 106.4156 H 44.478828 Z" />
  </g>
</svg>
